<?xml version="1.0" encoding="utf-8"?>
<!-- Generator: Adobe Illustrator 18.1.1, SVG Export Plug-In . SVG Version: 6.00 Build 0)  -->
<svg version="1.1" id="Layer_1" xmlns="http://www.w3.org/2000/svg" xmlns:xlink="http://www.w3.org/1999/xlink" x="0px" y="0px"
	 viewBox="-20 -102.7 800 800" enable-background="new -20 -102.7 800 800" xml:space="preserve">
<g>
	<path fill="#F0566F" d="M418.5,291.5c0,0,26.9-35.8,84.4,2.7c57.5,38.5,107.2,74.9,182.9,71.7L736,216.1
		c-75.7,3.2-118.6-31-176.2-69.4c-57.5-38.5-91.2-4.9-91.2-4.9L418.5,291.5z"/>
	<path fill="#3792CF" d="M548.4,477.1c-2.1-5.1-9.3-5.1-11.4,0l-71.9,176.2h155.2L548.4,477.1z"/>
	<path fill="#6AC9CC" d="M461.6,508.3c-1.7-4.2-7.7-4.2-9.4,0l-59.1,144.9h72l27.8-68.1L461.6,508.3z"/>
	<ellipse fill="#FEE36F" cx="185.8" cy="102.9" rx="119.9" ry="119.9"/>
	<path fill="#130000" d="M736,649.2H623.1l-70.9-173.7c-1.6-3.9-5.3-6.3-9.4-6.3s-7.9,2.5-9.4,6.3l-40.4,98.9l-27.6-67.6
		c-1.4-3.4-4.7-5.7-8.4-5.7s-7,2.2-8.4,5.7l-58.1,142.4H303l119.1-355.7c3.2-3.8,28.4-29.5,78.6,4.1l9.1,6.1
		c50.8,34.2,98.9,66.5,167,66.5c3,0,6.1-0.1,9.2-0.2c1.7-0.1,3.1-1.2,3.7-2.8l50.2-149.7c0.4-1.3,0.2-2.7-0.6-3.7s-2.1-1.7-3.4-1.6
		c-67.9,2.9-108.3-24.5-159.3-59c-4.7-3.2-9.5-6.4-14.4-9.7c-41-27.4-70.9-19.4-85.8-11.6l16.5-49.1c0.7-2.1-0.4-4.4-2.6-5.1
		c-2.1-0.7-4.4,0.4-5.1,2.6L294.4,649.2H24c-2.2,0-4,1.8-4,4c0,2.2,1.8,4,4,4h369.1h72h155.2H736c2.2,0,4-1.8,4-4
		C740,651,738.2,649.2,736,649.2z M472.2,144c4.8-4.1,35.5-27.4,85.4,6c4.9,3.3,9.7,6.5,14.4,9.7c48.8,33.1,91.1,61.7,158.3,60.6
		l-47.4,141.6c-68.9,2.1-115.1-29.1-168.6-65l-9.1-6.1c-20.7-13.9-37.8-18.4-51.3-18.4c-11.7,0-20.8,3.4-27.1,7.2l15.1-45.2
		L472.2,144z M456,509.9c0.3-0.8,1.5-0.8,1.9,0l30.7,75.3l-26.1,64h-63.3L456,509.9z M471.2,649.2l69.6-170.6c0.5-1.2,1.5-1.3,2-1.3
		c0.4,0,1.5,0.1,1.9,1.3l69.6,170.6L471.2,649.2L471.2,649.2z"/>
	<g>
		<path fill="#130000" d="M195.3-54.6c6.6,0.4,13.2,1.2,19.6,2.4c0.2,0,0.5,0.1,0.7,0.1c1.9,0,3.6-1.4,4-3.3c0.4-2.2-1-4.3-3.2-4.7
			c-6.8-1.3-13.7-2.1-20.7-2.5c-2.2-0.2-4.1,1.6-4.3,3.8C191.3-56.7,193-54.8,195.3-54.6z"/>
		<path fill="#130000" d="M300.9,210.9c-4.5,4.8-9.4,9.4-14.4,13.6c-1.7,1.4-2,4-0.5,5.7c0.8,1,2,1.5,3.1,1.5c0.9,0,1.8-0.3,2.6-0.9
			c5.3-4.4,10.4-9.2,15.2-14.3c1.5-1.6,1.4-4.2-0.2-5.7C305,209.2,302.4,209.3,300.9,210.9z"/>
		<path fill="#130000" d="M156.4,258c-6.5-1.2-12.9-2.9-19.2-4.9c-2.1-0.7-4.4,0.5-5.1,2.6c-0.7,2.1,0.5,4.4,2.6,5.1
			c6.6,2.1,13.4,3.9,20.2,5.1c0.3,0,0.5,0.1,0.8,0.1c1.9,0,3.6-1.4,4-3.3C160.1,260.5,158.6,258.4,156.4,258z"/>
		<path fill="#130000" d="M270.4,236.1c-5.6,3.5-11.4,6.8-17.3,9.6c-2,1-2.9,3.4-1.9,5.4c0.7,1.5,2.1,2.3,3.7,2.3
			c0.6,0,1.2-0.1,1.7-0.4c6.2-2.9,12.4-6.3,18.2-10.1c1.9-1.2,2.4-3.7,1.2-5.6C274.8,235.5,272.3,234.9,270.4,236.1z"/>
		<path fill="#130000" d="M195.9,260.4c-3.3,0.2-6.7,0.3-10,0.3c-3.3-0.1-6.6-0.1-9.8-0.3c-2.2-0.2-4.1,1.6-4.3,3.8s1.6,4.1,3.8,4.3
			c3.4,0.2,6.8,0.3,10.2,0.3c0,0,0.1,0,0.1,0c3.5,0,7-0.1,10.5-0.3c2.2-0.1,3.9-2.1,3.8-4.3C200,262,198.2,260.3,195.9,260.4z"/>
		<path fill="#130000" d="M234.1-47.4c6.3,2,12.5,4.4,18.4,7.2c0.6,0.3,1.1,0.4,1.7,0.4c1.5,0,3-0.9,3.7-2.3c0.9-2,0.1-4.4-2-5.4
			c-6.3-2.9-12.8-5.5-19.4-7.6c-2.1-0.7-4.4,0.5-5.1,2.6C230.8-50.3,232-48.1,234.1-47.4z"/>
		<path fill="#130000" d="M338.5,63c1.7,6.4,2.9,12.9,3.8,19.4c0.3,2,2,3.5,4,3.5c0.2,0,0.3,0,0.5,0c2.2-0.3,3.8-2.3,3.5-4.5
			c-0.9-6.9-2.2-13.7-4-20.4c-0.6-2.2-2.8-3.5-4.9-2.9C339.3,58.7,338,60.9,338.5,63z"/>
		<path fill="#130000" d="M343.6,139.2c-2.2-0.6-4.4,0.8-4.9,2.9c-1.6,6.4-3.7,12.7-6.1,18.8c-0.8,2.1,0.2,4.4,2.3,5.2
			c0.5,0.2,1,0.3,1.5,0.3c1.6,0,3.1-1,3.8-2.6c2.6-6.4,4.7-13.1,6.4-19.8C347.1,142,345.8,139.8,343.6,139.2z"/>
		<path fill="#130000" d="M351.7,102.2c0-2.2-1.8-4-4-4c-2.2,0-4,1.8-4,4v0.7c0,6.6-0.4,13.3-1.2,19.8c-0.3,2.2,1.3,4.2,3.5,4.5
			c0.2,0,0.3,0,0.5,0c2,0,3.8-1.5,4-3.5c0.9-6.8,1.3-13.8,1.3-20.8L351.7,102.2z"/>
		<path fill="#130000" d="M329.6,177.3c-2-1.1-4.4-0.4-5.5,1.6c-3.2,5.8-6.8,11.4-10.6,16.7c-1.3,1.8-0.9,4.3,0.9,5.7
			c0.7,0.5,1.6,0.8,2.4,0.8c1.2,0,2.5-0.6,3.3-1.7c4.1-5.6,7.8-11.5,11.2-17.6C332.3,180.9,331.6,178.4,329.6,177.3z"/>
		<path fill="#130000" d="M313.2,9.7c0.8,1.1,2,1.7,3.3,1.7c0.8,0,1.7-0.3,2.4-0.8c1.8-1.3,2.2-3.9,0.9-5.7c-4.1-5.6-8.6-11-13.3-16
			c-1.5-1.6-4.1-1.7-5.7-0.2c-1.6,1.5-1.7,4.1-0.2,5.7C305-0.7,309.3,4.4,313.2,9.7z"/>
		<path fill="#130000" d="M269.9-30.6c5.6,3.5,11,7.4,16.1,11.6c0.8,0.6,1.7,0.9,2.6,0.9c1.2,0,2.3-0.5,3.1-1.5
			c1.4-1.7,1.2-4.3-0.6-5.7c-5.3-4.4-11-8.5-16.9-12.2c-1.9-1.2-4.4-0.6-5.6,1.3C267.5-34.3,268-31.8,269.9-30.6z"/>
		<path fill="#130000" d="M332.3,44.2c0.6,1.6,2.2,2.5,3.8,2.5c0.5,0,1-0.1,1.5-0.3c2.1-0.8,3.1-3.2,2.2-5.3
			c-2.6-6.4-5.6-12.7-8.9-18.8c-1.1-2-3.6-2.7-5.5-1.6s-2.7,3.6-1.6,5.5C327,32.1,329.9,38.1,332.3,44.2z"/>
		<path fill="#130000" d="M234.7,253c-6.2,2-12.7,3.7-19.2,4.9c-2.2,0.4-3.6,2.5-3.2,4.7c0.4,1.9,2.1,3.3,4,3.3c0.2,0,0.5,0,0.8-0.1
			c6.8-1.3,13.6-3,20.2-5.2c2.1-0.7,3.3-3,2.6-5.1C239.1,253.5,236.9,252.3,234.7,253z"/>
		<path fill="#130000" d="M33.8,47.4c0.5,0.2,1,0.3,1.5,0.3c1.6,0,3.1-1,3.8-2.6c2.4-6.1,5.2-12.2,8.4-17.9c1.1-2,0.4-4.4-1.6-5.5
			c-2-1.1-4.4-0.4-5.5,1.6C37,29.4,34,35.7,31.5,42.1C30.7,44.2,31.7,46.6,33.8,47.4z"/>
		<path fill="#130000" d="M47.7,179.2c-1.1-2-3.5-2.7-5.5-1.6c-2,1.1-2.7,3.5-1.6,5.5c3.3,6,7.1,12,11.2,17.6c0.8,1.1,2,1.7,3.3,1.7
			c0.8,0,1.7-0.3,2.4-0.8c1.8-1.3,2.2-3.8,0.9-5.7C54.5,190.5,50.9,184.9,47.7,179.2z"/>
		<path fill="#130000" d="M33.1,142.4c-0.6-2.2-2.8-3.5-4.9-2.9c-2.2,0.6-3.5,2.8-2.9,4.9c1.7,6.7,3.9,13.4,6.5,19.8
			c0.6,1.6,2.2,2.6,3.8,2.6c0.5,0,1-0.1,1.5-0.3c2.1-0.8,3.1-3.2,2.3-5.3C36.8,155.2,34.7,148.8,33.1,142.4z"/>
		<path fill="#130000" d="M25.9,127.5c2.2-0.3,3.8-2.3,3.5-4.5c-0.8-6.5-1.3-13.2-1.3-19.8c0-2.2-1.8-4-4-4c0,0,0,0,0,0
			c-2.2,0-4,1.8-4,4.1c0,6.9,0.5,13.9,1.3,20.8c0.3,2,2,3.5,4,3.5C25.5,127.6,25.7,127.5,25.9,127.5z"/>
		<path fill="#130000" d="M24.8,87c0.2,0,0.3,0,0.5,0c2,0,3.8-1.5,4-3.6c0.8-6.5,2-13.1,3.6-19.5c0.6-2.2-0.8-4.4-2.9-4.9
			c-2.2-0.6-4.4,0.8-4.9,2.9c-1.7,6.7-3,13.6-3.8,20.5C21,84.7,22.6,86.7,24.8,87z"/>
		<path fill="#130000" d="M118.8,245.8c-6-2.8-11.8-6-17.4-9.5c-1.9-1.2-4.4-0.6-5.6,1.2c-1.2,1.9-0.6,4.4,1.2,5.6
			c5.9,3.7,12,7.1,18.3,10c0.6,0.3,1.1,0.4,1.7,0.4c1.5,0,3-0.9,3.7-2.3C121.7,249.2,120.9,246.8,118.8,245.8z"/>
		<path fill="#130000" d="M54.7,12.1c1.3,0,2.5-0.6,3.3-1.7C61.9,5.1,66.1,0,70.6-4.9c1.5-1.6,1.4-4.2-0.2-5.7
			c-1.6-1.5-4.2-1.4-5.7,0.2C60-5.3,55.5,0.1,51.4,5.7c-1.3,1.8-0.9,4.3,0.9,5.6C53.1,11.9,53.9,12.1,54.7,12.1z"/>
		<path fill="#130000" d="M71,211.1c-1.5-1.6-4.1-1.7-5.7-0.2c-1.6,1.5-1.7,4.1-0.2,5.7c4.7,5,9.9,9.8,15.2,14.2
			c0.8,0.6,1.7,0.9,2.6,0.9c1.2,0,2.3-0.5,3.1-1.5c1.4-1.7,1.2-4.3-0.5-5.7C80.4,220.4,75.5,215.9,71,211.1z"/>
		<path fill="#130000" d="M155.1-52c0.3,0,0.5,0,0.8-0.1c6.5-1.2,13.1-2.1,19.6-2.5c2.2-0.2,3.9-2.1,3.8-4.3c-0.1-2.2-2-3.9-4.3-3.8
			c-6.9,0.4-13.9,1.3-20.6,2.6c-2.2,0.4-3.6,2.5-3.2,4.7C151.5-53.3,153.2-52,155.1-52z"/>
		<path fill="#130000" d="M116.5-39.4c0.6,0,1.2-0.1,1.7-0.4c5.9-2.8,12.1-5.3,18.4-7.3c2.1-0.7,3.3-3,2.6-5.1s-3-3.3-5.1-2.6
			c-6.6,2.2-13.1,4.8-19.3,7.7c-2,1-2.9,3.4-1.9,5.4C113.6-40.2,115-39.4,116.5-39.4z"/>
		<path fill="#130000" d="M82.4-17.5c0.9,0,1.8-0.3,2.6-0.9c5.1-4.2,10.4-8.1,16-11.7c1.9-1.2,2.4-3.7,1.2-5.6
			c-1.2-1.9-3.7-2.4-5.6-1.2c-5.8,3.7-11.5,7.9-16.8,12.3c-1.7,1.4-2,4-0.5,5.7C80.1-18,81.2-17.5,82.4-17.5z"/>
	</g>
	<path fill="#130000" d="M61.9,102.9c0,68.3,55.6,123.9,123.9,123.9s123.9-55.6,123.9-123.9S254.2-21,185.8-21S61.9,34.6,61.9,102.9
		z M185.8-13c63.9,0,115.8,52,115.8,115.9c0,63.9-52,115.9-115.8,115.9S70,166.8,70,102.9C70,39,122-13,185.8-13z"/>
	<g>
		<path fill="#FFFFFF" d="M707.1,231.8c-2.1-0.8-4.4,0.3-5.2,2.4l-3.5,9.5c-0.8,2.1,0.3,4.4,2.4,5.2c0.5,0.2,0.9,0.2,1.4,0.2
			c1.6,0,3.2-1,3.8-2.7l3.5-9.5C710.3,234.9,709.2,232.6,707.1,231.8z"/>
		<path fill="#FFFFFF" d="M684.3,294.2c-2.1-0.8-4.4,0.3-5.2,2.4l-6.4,17.6c-0.8,2.1,0.3,4.4,2.4,5.2c0.5,0.2,0.9,0.2,1.4,0.2
			c1.6,0,3.2-1,3.8-2.7l6.4-17.6C687.5,297.3,686.4,295,684.3,294.2z"/>
		<path fill="#FFFFFF" d="M697.2,259c-2.1-0.8-4.4,0.3-5.2,2.4l-6.4,17.6c-0.8,2.1,0.3,4.4,2.4,5.2c0.5,0.2,0.9,0.2,1.4,0.2
			c1.6,0,3.2-1,3.8-2.7l6.4-17.6C700.4,262,699.3,259.7,697.2,259z"/>
		<path fill="#FFFFFF" d="M671.5,329.5c-2.1-0.8-4.4,0.3-5.2,2.4l-3.5,9.5c-0.8,2.1,0.3,4.4,2.4,5.2c0.5,0.2,0.9,0.2,1.4,0.2
			c1.6,0,3.2-1,3.8-2.7l3.5-9.5C674.7,332.6,673.6,330.3,671.5,329.5z"/>
	</g>
</g>
</svg>
